<svg width="44" height="44" viewBox="0 0 44 44" fill="none" xmlns="http://www.w3.org/2000/svg">
<g filter="url(#filter0_ii)">
<path d="M21.9999 0L32.7087 5.5112L43.4622 10.9776L32.7087 16.4888L21.9999 22L11.2912 16.4888L0.537598 10.9776L11.2912 5.5112L21.9999 0Z" fill="#D9AC80"/>
<path d="M35.3972 20.1181V15.1446L30.0204 17.8778V22.8513L32.9776 19.222L35.3972 20.1181Z" fill="#D7BAA4"/>
<path d="M21.9998 22V44L43.4621 33.0224V10.9776L35.3969 15.1446L35.2177 15.2342V20.0733L32.9774 19.222L30.0201 22.8513V17.8778L21.9998 22Z" fill="#A67E4F"/>
<path d="M21.9999 44V22L11.2912 16.4888L0.537598 10.9776V33.0224L21.9999 44Z" fill="#926E43"/>
<path d="M8.60278 6.85539L30.0203 17.8778L35.2179 15.2342L35.3971 15.1446L13.9796 4.12219L11.2912 5.51119L8.60278 6.85539Z" fill="#F2D3BA"/>
</g>
<defs>
<filter id="filter0_ii" x="0.537598" y="-2" width="42.9246" height="48" filterUnits="userSpaceOnUse" color-interpolation-filters="sRGB">
<feFlood flood-opacity="0" result="BackgroundImageFix"/>
<feBlend mode="normal" in="SourceGraphic" in2="BackgroundImageFix" result="shape"/>
<feColorMatrix in="SourceAlpha" type="matrix" values="0 0 0 0 0 0 0 0 0 0 0 0 0 0 0 0 0 0 127 0" result="hardAlpha"/>
<feOffset dy="2"/>
<feGaussianBlur stdDeviation="2"/>
<feComposite in2="hardAlpha" operator="arithmetic" k2="-1" k3="1"/>
<feColorMatrix type="matrix" values="0 0 0 0 1 0 0 0 0 1 0 0 0 0 1 0 0 0 0.25 0"/>
<feBlend mode="normal" in2="shape" result="effect1_innerShadow"/>
<feColorMatrix in="SourceAlpha" type="matrix" values="0 0 0 0 0 0 0 0 0 0 0 0 0 0 0 0 0 0 127 0" result="hardAlpha"/>
<feOffset dy="-2"/>
<feGaussianBlur stdDeviation="2"/>
<feComposite in2="hardAlpha" operator="arithmetic" k2="-1" k3="1"/>
<feColorMatrix type="matrix" values="0 0 0 0 0 0 0 0 0 0 0 0 0 0 0 0 0 0 0.12 0"/>
<feBlend mode="normal" in2="effect1_innerShadow" result="effect2_innerShadow"/>
</filter>
</defs>
</svg>
