<svg width="44" height="44" viewBox="0 0 44 44" fill="none" xmlns="http://www.w3.org/2000/svg">
<g clip-path="url(#clip0)">
<g filter="url(#filter0_ii)">
<path d="M35.5692 40.8295C35.5231 42.5919 34.0848 44 32.3214 44H4.65744C2.894 44 1.45661 42.5919 1.41046 40.8295C1.04093 26.7851 4.11466 16.0572 5.5609 11.8338C5.96248 10.6612 7.06489 9.87494 8.30334 9.87494H28.6755C29.9148 9.87494 31.0172 10.6611 31.4188 11.8338C32.2307 14.2058 33.5562 18.629 34.497 24.5385C35.2308 29.1527 35.731 34.6721 35.5692 40.8295Z" fill="#DB5C6E"/>
<path d="M35.5692 40.8295C35.523 42.5919 34.0847 44 32.3213 44H16.9951C15.9743 44 15.0451 43.4163 14.6018 42.4978C13.3758 39.9579 11.1824 34.3807 11.2899 27.1636C11.3113 25.7094 12.4928 24.5385 13.947 24.5385H34.4968C35.2308 29.1527 35.7309 34.6721 35.5692 40.8295Z" fill="#D64553"/>
<path d="M11.1159 9.87494C10.2186 9.87494 9.42087 10.6611 9.13041 11.8338C8.083 16.0571 5.85851 26.7851 6.12594 40.8295C6.15877 42.5919 7.19999 44 8.47659 44H4.65744C2.89401 44 1.45662 42.5919 1.41047 40.8295C1.04094 26.7851 4.1138 16.0572 5.56005 11.8338C5.96163 10.6612 7.06404 9.87494 8.30334 9.87494H11.1159Z" fill="#D64553"/>
<path d="M25.4574 18.1706C24.6645 18.1706 24.0218 17.5279 24.0218 16.735V8.40314C24.0218 5.35279 21.5402 2.87117 18.4898 2.87117C15.4395 2.87117 12.9578 5.35279 12.9578 8.40314V16.735C12.9578 17.5278 12.3151 18.1705 11.5223 18.1705C10.7294 18.1705 10.0867 17.5278 10.0867 16.735V8.40314C10.0867 3.76965 13.8562 0 18.4898 0C23.1234 0 26.8929 3.76965 26.8929 8.40314V16.735C26.8929 17.5278 26.2502 18.1706 25.4574 18.1706Z" fill="#407093"/>
<path d="M25.487 16.7349V8.40312C25.487 5.35277 23.0054 2.87115 19.955 2.87115C19.7066 2.87115 19.4623 2.88929 19.2224 2.92117C21.9275 3.2809 24.0218 5.6013 24.0218 8.40312V16.7349C24.0218 17.5278 24.6645 18.1705 25.4573 18.1705C25.7253 18.1705 25.9753 18.0958 26.19 17.9679C25.7696 17.7175 25.487 17.2598 25.487 16.7349Z" fill="#365E7D"/>
<path d="M11.5518 16.735V8.40314C11.5518 4.01646 14.9307 0.404766 19.2223 0.0322266C18.9809 0.0113438 18.7366 0 18.4898 0C13.8563 0 10.0867 3.76965 10.0867 8.40314V16.735C10.0867 17.5278 10.7294 18.1705 11.5223 18.1705C11.7903 18.1705 12.0402 18.0958 12.2549 17.9679C11.8345 17.7176 11.5518 17.2599 11.5518 16.735Z" fill="#365E7D"/>
<path d="M17.2451 42.4975C16.0198 39.958 13.8265 34.3804 13.9335 27.1635C13.955 25.7089 15.1362 24.5388 16.591 24.5388H28.2751H39.9593C41.414 24.5388 42.5952 25.7089 42.6168 27.1635C42.7237 34.3804 40.5304 39.958 39.3051 42.4975C38.8616 43.4165 37.9319 44 36.9117 44H19.6385C18.6182 44 17.6886 43.4165 17.2451 42.4975Z" fill="#FFD064"/>
<path d="M22.3292 43.9998H19.6383C18.6185 43.9998 17.6883 43.4162 17.245 42.4976C16.02 39.9577 13.8266 34.3805 13.9332 27.1634C13.9545 25.7092 15.1361 24.5383 16.5912 24.5383H20.2318C19.2306 24.5383 18.4169 25.7092 18.4026 27.1634C18.3289 34.3805 19.8382 39.9578 20.6822 42.4976C20.9869 43.4162 21.6274 43.9998 22.3292 43.9998Z" fill="#FFC250"/>
<path d="M28.7193 37.3229C25.4752 37.3229 22.8359 34.6836 22.8359 31.4395V28.4648C22.8359 27.828 23.3522 27.3117 23.989 27.3117C24.6258 27.3117 25.1422 27.828 25.1422 28.4648V31.4395C25.1422 33.4121 26.7469 35.0167 28.7193 35.0167C30.6917 35.0167 32.2965 33.412 32.2965 31.4395V28.4648C32.2965 27.828 32.8128 27.3117 33.4496 27.3117C34.0864 27.3117 34.6027 27.828 34.6027 28.4648V31.4395C34.6027 34.6837 31.9634 37.3229 28.7193 37.3229Z" fill="#407093"/>
<path d="M29.7979 35.0167C31.7703 35.0167 33.375 33.412 33.375 31.4395V28.4648C33.375 28.0229 33.6239 27.6394 33.9888 27.4459C33.8278 27.3605 33.6445 27.3118 33.4495 27.3118C32.8127 27.3118 32.2964 27.8281 32.2964 28.4649V31.4396C32.2964 33.2288 30.9761 34.7153 29.2585 34.9761C29.4345 35.0027 29.6146 35.0167 29.7979 35.0167Z" fill="#365E7D"/>
<path d="M23.9145 31.4395V28.4648C23.9145 28.0229 24.1633 27.6394 24.5283 27.4459C24.3673 27.3605 24.184 27.3118 23.989 27.3118C23.3522 27.3118 22.8359 27.8281 22.8359 28.4649V31.4396C22.8359 34.6837 25.4752 37.323 28.7193 37.323C28.9012 37.323 29.0808 37.3134 29.2586 37.2972C26.2664 37.0238 23.9145 34.5017 23.9145 31.4395Z" fill="#365E7D"/>
</g>
</g>
<defs>
<filter id="filter0_ii" x="1.37988" y="-2" width="41.2407" height="48" filterUnits="userSpaceOnUse" color-interpolation-filters="sRGB">
<feFlood flood-opacity="0" result="BackgroundImageFix"/>
<feBlend mode="normal" in="SourceGraphic" in2="BackgroundImageFix" result="shape"/>
<feColorMatrix in="SourceAlpha" type="matrix" values="0 0 0 0 0 0 0 0 0 0 0 0 0 0 0 0 0 0 127 0" result="hardAlpha"/>
<feOffset dy="2"/>
<feGaussianBlur stdDeviation="2"/>
<feComposite in2="hardAlpha" operator="arithmetic" k2="-1" k3="1"/>
<feColorMatrix type="matrix" values="0 0 0 0 1 0 0 0 0 1 0 0 0 0 1 0 0 0 0.25 0"/>
<feBlend mode="normal" in2="shape" result="effect1_innerShadow"/>
<feColorMatrix in="SourceAlpha" type="matrix" values="0 0 0 0 0 0 0 0 0 0 0 0 0 0 0 0 0 0 127 0" result="hardAlpha"/>
<feOffset dy="-2"/>
<feGaussianBlur stdDeviation="2"/>
<feComposite in2="hardAlpha" operator="arithmetic" k2="-1" k3="1"/>
<feColorMatrix type="matrix" values="0 0 0 0 0 0 0 0 0 0 0 0 0 0 0 0 0 0 0.12 0"/>
<feBlend mode="normal" in2="effect1_innerShadow" result="effect2_innerShadow"/>
</filter>
<clipPath id="clip0">
<rect width="44" height="44" fill="white"/>
</clipPath>
</defs>
</svg>
