<svg width="108" height="58" viewBox="0 0 108 58" fill="none" xmlns="http://www.w3.org/2000/svg">
<path fill-rule="evenodd" clip-rule="evenodd" d="M56.7399 0.149302C56.5756 0.420007 58.8899 2.99533 62.7347 6.82037C65.2263 9.29913 65.6613 9.65765 66.179 9.65765C66.7108 9.65765 67.2286 9.1875 71.2165 5.08469C73.6613 2.56965 75.6284 0.413682 75.588 0.293865C75.4711 -0.0533072 72.7829 0.0333917 71.5118 0.425216C69.3796 1.08272 67.2381 3.06231 66.5617 5.00209C66.3822 5.51615 66.192 5.93662 66.1386 5.93662C66.0853 5.93662 65.8976 5.52377 65.7216 5.0192C65.0567 3.11273 63.1475 1.25594 61.1135 0.53722C59.8021 0.0737658 56.9398 -0.18001 56.7399 0.149302ZM49.7842 4.61268C48.436 5.11 46.7253 6.02834 46.3419 6.46054C45.878 6.98372 46.0201 7.44755 46.7182 7.68755C47.0418 7.799 47.4736 8.03584 47.6775 8.21389C48.039 8.52962 48.0483 8.72981 48.0455 16.2141C48.0426 24.571 48.0485 24.5213 46.9983 25.1926C46.2582 25.6657 46.0631 26.1967 46.5077 26.5277C47.0294 26.9162 52.6725 26.8769 53.0604 26.4821C53.4244 26.1113 53.4222 25.9193 53.0509 25.6188C52.8877 25.4869 52.4729 25.1117 52.1292 24.7849C51.5099 24.1961 51.5048 24.1782 51.558 22.7516L51.6115 21.3125L54.4164 18.9493L55.866 21.3268C57.744 24.4071 57.7432 24.4047 56.9255 25.1673C56.2364 25.8099 56.0747 26.4717 56.5602 26.6615C57.079 26.8643 62.8519 26.7861 63.2466 26.571C63.5164 26.4241 63.6749 26.4241 63.8192 26.571C64.0805 26.8371 69.6849 26.8466 70.1708 26.5818C70.7431 26.2698 70.5958 25.7087 69.8086 25.2028C69.415 24.9498 69.0245 24.6348 68.9406 24.5029C68.8568 24.3708 68.7471 21.5506 68.6969 18.2361C68.5936 11.4305 68.6282 11.5816 67.2887 12.0542C65.8814 12.5508 63.5846 13.7673 63.4032 14.1123C63.1376 14.6174 63.3379 14.9955 63.9943 15.2286C65.2365 15.6694 65.225 15.6249 65.225 20.0003C65.225 22.1778 65.1526 24.1533 65.064 24.3901C64.9755 24.627 64.5821 25.0045 64.1898 25.2289L63.4766 25.6367L62.7519 25.2289C62.1653 24.8986 61.5508 24.0938 59.5285 21.0068C58.1542 18.9091 57.0236 17.093 57.016 16.9713C56.99 16.5574 59.9888 14.2302 61.253 13.6832C62.2704 13.2432 62.484 13.0756 62.484 12.7175C62.484 12.4793 62.4144 12.2406 62.3294 12.187C62.2443 12.1334 60.7948 12.0795 59.1081 12.067C56.692 12.0492 55.9868 12.1 55.7842 12.3065C55.4388 12.6579 55.6491 13.1443 56.2933 13.4834C56.5838 13.6364 56.8194 13.9136 56.8194 14.1028C56.8194 14.3114 55.7838 15.365 54.1698 16.7985L51.5202 19.1517V12.0668C51.5202 5.09102 51.4557 4.25267 50.9199 4.26885C50.7978 4.27258 50.2867 4.42719 49.7842 4.61268ZM3.00509 5.7301L0.0813926 5.8436L0.0274873 6.31356C-0.0152717 6.6866 0.139317 6.90242 0.776683 7.35973C1.35046 7.77165 1.61359 8.10877 1.69856 8.54097C1.85169 9.32053 1.85443 23.1905 1.70148 23.9686C1.61944 24.3866 1.35356 24.7208 0.78783 25.1171C-0.0134453 25.6784 -0.198186 26.1362 0.209304 26.5511C0.557406 26.9056 7.36523 26.8628 7.65742 26.5043C8.04408 26.03 7.77839 25.5792 6.79566 25.0419C6.21275 24.7234 5.79978 24.3596 5.73893 24.1116C5.68411 23.8878 5.66327 22.8673 5.69269 21.844L5.74605 19.9835L7.57336 19.9536C10.3843 19.9074 11.4677 19.7683 13.0995 19.2434C14.3521 18.8404 14.7825 18.5905 15.6788 17.7457C17.2018 16.3099 17.5993 15.3164 17.613 12.91C17.6228 11.1708 17.5837 10.9634 17.0279 9.81357C16.6984 9.13187 16.0961 8.27231 15.68 7.88942C14.792 7.07265 13.0474 6.20249 11.7722 5.94034C10.5424 5.6875 6.56286 5.59205 3.00509 5.7301ZM98.933 7.60178C98.0506 7.96607 97.047 9.51663 96.5489 11.2856C96.5069 11.435 96.1277 11.5182 95.4887 11.5182C94.1423 11.5182 91.9539 11.9625 90.9725 12.435C87.827 13.9497 86.9692 17.6179 89.2771 19.6862L90.0954 20.4196L89.276 21.2537C87.8219 22.7343 87.7513 24.0809 89.0668 25.257L89.6567 25.7842L88.8543 26.3011C87.8573 26.9431 87.2581 28.0355 87.4383 28.8825C87.8896 31.0056 90.624 32.1799 95.1929 32.2131C98.5907 32.2376 100.488 31.7377 102.286 30.3442C103.717 29.2344 104.132 26.9651 103.174 25.4892C102.229 24.034 101.412 23.8035 94.8447 23.1393C93.196 22.9726 91.6541 22.7615 91.4185 22.6703C90.8762 22.4604 90.8696 21.9309 91.403 21.4208C91.7595 21.0799 91.9158 21.0494 92.5451 21.1979C94.4687 21.652 97.6447 21.2887 99.3043 20.4246C101.521 19.2704 102.576 16.7421 101.715 14.6444C101.336 13.7225 100.252 12.7229 99.104 12.2386C98.561 12.0093 98.1166 11.7649 98.1166 11.6953C98.1166 11.6259 98.3324 11.3492 98.5959 11.0808C99.1355 10.5313 100.048 10.2195 101.132 10.2143C102.794 10.2061 103.269 9.63998 102.394 8.70954C101.416 7.67044 99.924 7.19284 98.933 7.60178ZM10.2012 7.91826C12.1053 8.54432 13.2017 10.0898 13.4255 12.4633C13.5035 13.289 13.4538 13.9352 13.2645 14.5566C12.627 16.65 11.4169 17.5526 8.79565 17.8893C7.33435 18.0772 7.12366 18.0635 6.46747 17.7373L5.74605 17.3788L5.69708 12.9368C5.64555 8.27436 5.66894 8.11901 6.47058 7.78821C7.11105 7.52383 9.22635 7.59769 10.2012 7.91826ZM38.5554 11.7104C34.6667 12.5385 32.0069 16.6978 32.6844 20.8913C33.3295 24.8826 35.9438 27.1379 39.9509 27.1599C42.2049 27.1724 44.3838 26.2879 45.567 24.8806C46.9998 23.1763 46.4757 21.6319 44.9672 23.1129C42.9707 25.0731 40.293 25.1978 38.3122 23.4225C36.2862 21.6066 35.6421 17.7956 36.9103 15.1281C37.8402 13.1724 40.3098 12.6423 41.5425 14.1341C41.798 14.4433 42.1764 15.2999 42.3831 16.0375C42.8479 17.6956 42.9682 17.9228 43.418 17.9916C44.2436 18.1182 45.8555 16.0718 45.8555 14.8971C45.8555 13.9902 44.511 12.6529 43.0232 12.0799C41.793 11.606 39.8144 11.4424 38.5554 11.7104ZM22.2876 12.0025C19.7908 12.6856 17.6217 14.853 18.5206 15.7667C18.8049 16.0558 18.8767 16.0463 19.5949 15.6266C21.339 14.6074 22.0696 14.2952 22.9637 14.1873C24.7501 13.9718 26.0376 15.2489 26.4073 17.603L26.524 18.347L25.363 18.0994C22.2649 17.4385 19.0209 18.3191 17.9295 20.1171C16.578 22.3436 17.2523 25.0045 19.5101 26.356C20.2956 26.8261 20.5191 26.8674 22.2832 26.8672C24.0025 26.8671 24.3159 26.8129 25.2983 26.3456C25.9013 26.0587 26.6439 25.5786 26.9485 25.2789L27.5024 24.7338L27.821 25.3355C27.9961 25.6665 28.429 26.1388 28.7828 26.3854C30.3246 27.46 33.4298 26.5431 33.4298 25.0132C33.4298 24.8499 33.3271 24.6862 33.2014 24.6495C31.9307 24.2785 31.2787 23.9196 30.9986 23.4366C30.8023 23.0986 30.473 21.4833 30.1357 19.2041C29.5268 15.0918 29.1676 14.0578 27.9628 12.9495C26.7077 11.7948 24.4334 11.4153 22.2876 12.0025ZM79.3676 11.96C78.3997 12.2789 77.0683 13.2144 76.636 13.8797L76.2967 14.402L76.1057 13.1926C75.9416 12.1537 75.8572 11.9749 75.5063 11.9241C75.0152 11.8532 72.1339 13.0656 71.3008 13.6939C70.4725 14.3186 70.492 14.9521 71.3481 15.2398C72.5483 15.6429 72.5342 15.5856 72.5342 20.102C72.5342 22.402 72.4562 24.3425 72.3562 24.5328C72.2583 24.7191 71.8883 25.0456 71.534 25.2584C70.8743 25.6547 70.7122 26.1472 71.1089 26.5511C71.4166 26.8644 77.3064 26.8644 77.6141 26.5511C78.0183 26.1396 77.8416 25.6681 77.106 25.1952C76.7058 24.9381 76.3306 24.5336 76.2722 24.2966C76.2139 24.0595 76.1918 22.2742 76.2232 20.3288C76.28 16.803 76.2818 16.7896 76.7961 15.9992C77.7415 14.5456 79.4789 14.1359 80.6656 15.0863C81.4647 15.7261 81.8285 16.9217 82.337 20.577C82.8759 24.4502 82.8483 24.6614 81.7302 25.2175C80.9464 25.6073 80.7346 26.1615 81.2289 26.5296C81.6379 26.8339 87.3508 26.8786 87.8957 26.5818C88.4433 26.2834 88.3213 25.7383 87.6112 25.3117C86.599 24.7036 86.3194 24.0346 85.9823 21.4157C85.5132 17.7706 85.1379 15.645 84.8313 14.898C84.386 13.8127 83.5312 12.7217 82.8013 12.3072C81.914 11.803 80.3306 11.643 79.3676 11.96ZM96.9114 13.8237C97.9457 14.4407 98.3177 15.0574 98.4323 16.3445C98.6143 18.3868 97.308 19.7044 95.1015 19.7044C92.9831 19.7044 91.5382 18.3464 91.5382 16.3555C91.5382 14.3143 92.9573 13.1072 95.1558 13.2782C95.7511 13.3245 96.427 13.5346 96.9114 13.8237ZM26.256 19.9017C26.7846 20.0892 26.82 20.1673 26.9913 21.5296C27.1661 22.9213 27.1585 22.9741 26.71 23.4645C26.1505 24.0763 25.0174 24.637 23.9857 24.8125C23.0496 24.9716 21.7396 24.4476 21.2771 23.7291C20.8241 23.0251 20.7377 21.943 21.0697 21.1337C21.4706 20.1567 22.478 19.7139 24.3117 19.7085C25.0755 19.7063 25.9504 19.7932 26.256 19.9017ZM95.4562 26.587C98.5882 26.9517 99.3535 27.1355 99.9895 27.6764C100.348 27.9808 100.406 28.6619 100.121 29.2046C99.4326 30.5135 94.7519 31.1083 92.2403 30.2059C90.4155 29.5505 89.9012 28.1586 91.009 26.8739C91.321 26.5123 91.7323 26.2162 91.9233 26.2162C92.114 26.2162 93.704 26.3831 95.4562 26.587ZM38.8258 31.1061C37.1613 32.0659 36.7195 34.0085 38.0112 34.6885C39.2808 35.357 41.304 34.6892 41.903 33.404C42.3556 32.433 42.2822 31.8383 41.6333 31.2212C40.9168 30.5397 39.8815 30.4973 38.8258 31.1061ZM18.254 31.6955C17.8496 32.107 18.0804 32.7042 18.8036 33.1182C19.2502 33.3736 19.5998 33.7446 19.7173 34.0881C19.9759 34.8433 19.9759 49.218 19.7173 49.9732C19.5998 50.3166 19.2502 50.6876 18.8036 50.9431C18.2779 51.2439 18.0804 51.4778 18.0804 51.7993C18.0804 52.0424 18.1608 52.2921 18.2591 52.3539C18.4925 52.5009 25.5258 52.5009 25.7591 52.3539C25.8574 52.2921 25.9378 52.0326 25.9378 51.7771C25.9378 51.3946 25.7651 51.235 24.9575 50.8712C24.4182 50.6284 23.9249 50.2913 23.8611 50.122C23.7973 49.9529 23.7451 48.9127 23.7451 47.8109V45.8073L26.6231 45.6942C29.7476 45.5712 30.7405 45.366 32.4357 44.4923C33.7075 43.8366 34.6344 42.8751 35.2573 41.5649C35.6238 40.7941 35.6938 40.3565 35.702 38.7822C35.7108 37.1062 35.658 36.7949 35.1867 35.7544C34.2382 33.6592 32.3192 32.2733 29.551 31.6841C28.1246 31.3805 18.554 31.3902 18.254 31.6955ZM54.0665 34.1753C53.3904 34.8637 53.1178 35.3261 52.8592 36.2217L52.5252 37.3788L51.2093 37.3792C47.878 37.3797 45.1078 38.8341 44.2911 41.0112C43.6249 42.7875 44.2572 44.9635 45.6896 45.8251L46.2628 46.1699L45.5361 46.8445C44.5662 47.7448 44.2107 48.3858 44.2116 49.2336C44.2124 50.0578 44.7555 51.0618 45.2947 51.2361C45.8266 51.408 45.7652 51.6212 45.1032 51.9003C44.79 52.0324 44.2966 52.4737 44.0068 52.8812C42.4492 55.0706 44.3321 57.1747 48.453 57.8493C50.2155 58.1377 54.373 57.9898 55.5673 57.5961C58.2406 56.7147 59.7431 55.1713 59.7431 53.3063C59.7431 52.2253 59.4883 51.5669 58.7819 50.8212C57.8458 49.8331 56.7563 49.5441 52.3297 49.1103C50.1257 48.8943 48.0141 48.6329 47.6371 48.5294C46.8265 48.3071 46.7403 47.8795 47.3822 47.2656C47.7676 46.8968 47.8962 46.8735 48.6157 47.0425C49.6881 47.2942 51.8239 47.2888 53.0187 47.0315C56.097 46.3684 58.103 44.379 58.0974 41.9947C58.0937 40.3921 56.7289 38.6225 55.0202 38.0047C54.1111 37.6759 54.1089 37.6731 54.3635 37.1719C54.6653 36.5773 55.6934 36.1533 57.2592 35.9778C58.6737 35.8193 58.8294 35.7458 58.8294 35.2364C58.8294 34.3811 57.0739 33.2862 55.7027 33.2862C55.0355 33.2862 54.8301 33.3978 54.0665 34.1753ZM29.2315 34.148C30.5838 34.9225 31.1738 35.9075 31.4492 37.8491C31.6315 39.1364 31.6171 39.4806 31.3397 40.4492C30.7155 42.6277 28.958 43.7051 26.0285 43.7051C23.6104 43.7051 23.7248 43.9708 23.7858 38.501L23.8364 33.9482L24.2932 33.702C24.6063 33.5333 25.2977 33.4745 26.4906 33.5154C28.037 33.5684 28.3426 33.639 29.2315 34.148ZM65.0658 37.3974C64.5258 37.4917 63.5121 37.875 62.8126 38.2491C59.9075 39.8036 58.3834 43.1624 59.0595 46.5204C59.9852 51.1196 63.309 53.5472 67.6911 52.8246C70.0926 52.4287 72.532 50.7922 73.7097 48.7873L74.2455 47.8749L74.7528 48.9084C75.4583 50.346 76.5808 51.4277 78.1945 52.2253C79.5299 52.8852 79.6297 52.905 81.6708 52.9098C83.4144 52.9139 83.9854 52.8397 85.025 52.4743C89.9534 50.7419 91.8125 44.3116 88.5864 40.156C87.679 38.9872 86.5241 38.2248 84.8965 37.7202C83.8661 37.4005 83.3183 37.3473 81.7901 37.4186C80.1548 37.4949 79.7724 37.5819 78.5643 38.1529C77.0031 38.891 75.5354 40.2265 74.8995 41.4877C74.6716 41.9398 74.2581 43.0762 73.9807 44.013C72.6778 48.412 70.9929 50.1239 67.9659 50.1239C66.7712 50.1239 66.4679 50.0502 65.601 49.5495C65.0539 49.2336 64.3305 48.6349 63.9934 48.2191L63.3801 47.4628L67.6813 45.203C70.088 43.9386 72.0668 42.7828 72.1739 42.5791C72.5828 41.801 71.4927 39.5411 70.2386 38.5671C68.935 37.5548 66.8566 37.0848 65.0658 37.3974ZM98.7154 37.9583C98.0307 38.2262 97.5011 38.6287 96.8424 39.3813L95.9238 40.4304V39.3852C95.9238 38.8104 95.8739 38.2076 95.8129 38.0458C95.617 37.5258 94.6198 37.7243 92.6964 38.6661C90.2398 39.8689 89.9724 40.3843 91.418 41.1303C91.8359 41.346 92.2383 41.6159 92.3121 41.73C92.3859 41.8442 92.4475 43.7399 92.4492 45.9427C92.4521 50.3287 92.4161 50.4958 91.3444 51.0599C90.9356 51.2752 90.8073 51.4729 90.8073 51.8876V52.4326L93.9265 52.4875C95.6422 52.5178 97.2045 52.4824 97.3984 52.409C97.9791 52.189 97.8187 51.57 97.0463 51.0497C96.6587 50.7884 96.2476 50.3648 96.1326 50.1081C95.7961 49.356 95.8582 43.9179 96.2158 42.8279C96.8875 40.7798 98.7788 39.8043 100.276 40.7338C101.256 41.3422 101.689 42.5886 102.222 46.3386C102.755 50.0872 102.723 50.325 101.584 51.0569C101.021 51.419 100.849 51.6404 100.892 51.9475C100.947 52.3466 101.025 52.3587 104.114 52.4495C105.855 52.5007 107.438 52.4824 107.632 52.409C108.226 52.1838 108.078 51.4264 107.356 50.9925C107.01 50.7849 106.598 50.3603 106.44 50.0489C106.282 49.7373 105.945 47.9104 105.692 45.9891C105.137 41.7757 104.873 40.7502 104.013 39.4596C102.818 37.666 100.872 37.1144 98.7154 37.9583ZM38.3635 38.7332C36.7016 39.5749 36.4372 39.7721 36.3878 40.2077C36.3381 40.6458 36.4438 40.7653 37.2101 41.138L38.0894 41.5655L38.1411 45.6586C38.1695 47.9099 38.1503 49.9281 38.0986 50.1436C38.0467 50.359 37.6741 50.7579 37.2702 51.0299C36.4703 51.5691 36.2994 52.1857 36.8883 52.409C37.0819 52.4824 38.6237 52.5007 40.3145 52.4495L43.3886 52.3565L43.4286 51.8914C43.4595 51.5349 43.2885 51.2939 42.6977 50.8605L41.9268 50.2947L41.8354 44.2556C41.7852 40.9342 41.6775 38.112 41.5962 37.984C41.3066 37.5284 40.2665 37.7695 38.3635 38.7332ZM52.4883 39.3052C53.2868 39.6449 54.2025 40.7459 54.4431 41.6561C55.2608 44.7479 51.4054 46.7807 48.6584 44.7059C47.4911 43.8242 47.1657 41.6183 48.0221 40.3936C48.8421 39.2211 51.0346 38.6867 52.4883 39.3052ZM82.91 39.528C85.0432 40.4328 86.548 43.4829 86.3852 46.572C86.2853 48.4712 85.7325 49.6933 84.6109 50.496C83.5761 51.2363 81.9889 51.2796 80.8092 50.5996C78.3332 49.1726 77.0113 44.6967 78.1656 41.6481C78.8766 39.7697 81.1184 38.768 82.91 39.528ZM66.8615 39.7937C67.7609 40.2609 68.3793 41.1404 68.4038 41.9871L68.4228 42.6472L65.6016 44.2015C64.0498 45.0562 62.7139 45.688 62.6328 45.6054C62.5518 45.523 62.3979 44.9736 62.2911 44.3846C61.6734 40.9828 64.222 38.4227 66.8615 39.7937ZM51.7857 52.453C53.6711 52.6808 55.137 52.9535 55.5307 53.15C56.8789 53.8226 56.6392 55.1015 55.0224 55.8624C54.269 56.2169 53.8507 56.2636 51.4288 56.2636C48.9871 56.2636 48.5924 56.2187 47.8136 55.8526C46.3344 55.1573 46.0565 53.7109 47.1701 52.504C47.6541 51.9795 47.8458 51.9775 51.7857 52.453Z" fill="black"/>
</svg>
