<svg width="44" height="44" viewBox="0 0 44 44" fill="none" xmlns="http://www.w3.org/2000/svg">
<g clip-path="url(#clip0)">
<g filter="url(#filter0_ii)">
<path d="M40.7735 4.83813H27.2639C26.4089 4.83813 25.5877 5.17854 24.9828 5.78351L7.3981 23.365C6.13813 24.6249 6.13813 26.6673 7.3981 27.9289L20.9076 41.4385C22.1676 42.6984 24.21 42.6984 25.47 41.4385L43.0547 23.857C43.6596 23.2504 44 22.4293 44 21.5742V8.06468C44 6.28363 42.5562 4.83813 40.7735 4.83813ZM28.6739 13.8547C26.8155 13.8547 25.3087 12.3479 25.3087 10.4894C25.3087 8.63094 26.8155 7.12414 28.6739 7.12414C30.5324 7.12414 32.0392 8.63094 32.0392 10.4894C32.0392 12.3479 30.5324 13.8547 28.6739 13.8547Z" fill="#EB7A25"/>
<path d="M7.3981 27.9289L20.906 41.4385C22.166 42.6984 24.2084 42.6984 25.4684 41.4385L39.1602 27.7498V4.83813H27.2639C26.8364 4.83813 26.417 4.92364 26.0298 5.08335C25.6426 5.24468 25.2861 5.48022 24.9828 5.7819L7.3981 23.3633C6.61082 24.1506 6.3156 25.2444 6.51241 26.2608C6.56565 26.535 6.66729 26.798 6.79151 27.0529C6.94477 27.3675 7.13836 27.6676 7.3981 27.9289ZM28.6739 7.12414C30.5324 7.12414 32.0392 8.63094 32.0392 10.4894C32.0392 12.3479 30.5324 13.8547 28.6739 13.8547C26.8154 13.8547 25.3086 12.3479 25.3086 10.4894C25.3086 8.63094 26.8154 7.12414 28.6739 7.12414Z" fill="#AD5B26" fill-opacity="0.59"/>
<path d="M34.3204 1.61646H20.8108C19.9558 1.61646 19.1346 1.95686 18.5296 2.56183L0.944974 20.1433C-0.314992 21.4032 -0.314992 23.4456 0.944974 24.7072L14.4545 38.2168C15.7145 39.4767 17.7569 39.4767 19.0169 38.2168L36.6015 20.6353C37.2065 20.0287 37.5469 19.2076 37.5469 18.3509V4.843C37.5469 3.06033 36.103 1.61646 34.3204 1.61646ZM28.6739 12.9094C27.3381 12.9094 26.254 11.8252 26.254 10.4895C26.254 9.15367 27.3381 8.06955 28.6739 8.06955C30.0097 8.06955 31.0938 9.15367 31.0938 10.4895C31.0938 11.8252 30.0097 12.9094 28.6739 12.9094Z" fill="#B3E4FF"/>
<path d="M28.6738 8.47289C29.7854 8.47289 30.6904 9.37794 30.6904 10.4895C30.6904 11.601 29.7854 12.5061 28.6738 12.5061C27.5623 12.5061 26.6572 11.601 26.6572 10.4895C26.6572 9.37794 27.5623 8.47289 28.6738 8.47289ZM28.6738 6.85962C26.6685 6.85962 25.0439 8.48418 25.0439 10.4895C25.0439 12.4948 26.6685 14.1193 28.6738 14.1193C30.6791 14.1193 32.3037 12.4948 32.3037 10.4895C32.3037 8.48418 30.6791 6.85962 28.6738 6.85962Z" fill="#5886C5"/>
</g>
<rect x="15.0752" y="9.72583" width="19.857" height="2.26803" rx="1.13401" transform="rotate(44.6778 15.0752 9.72583)" fill="#78B7FF"/>
<rect x="11.5947" y="13" width="19.857" height="2.26803" rx="1.13401" transform="rotate(44.6778 11.5947 13)" fill="#78B7FF"/>
</g>
<defs>
<filter id="filter0_ii" x="0" y="0.0450265" width="44" height="43.9098" filterUnits="userSpaceOnUse" color-interpolation-filters="sRGB">
<feFlood flood-opacity="0" result="BackgroundImageFix"/>
<feBlend mode="normal" in="SourceGraphic" in2="BackgroundImageFix" result="shape"/>
<feColorMatrix in="SourceAlpha" type="matrix" values="0 0 0 0 0 0 0 0 0 0 0 0 0 0 0 0 0 0 127 0" result="hardAlpha"/>
<feOffset dy="1.57143"/>
<feGaussianBlur stdDeviation="1.57143"/>
<feComposite in2="hardAlpha" operator="arithmetic" k2="-1" k3="1"/>
<feColorMatrix type="matrix" values="0 0 0 0 1 0 0 0 0 1 0 0 0 0 1 0 0 0 0.25 0"/>
<feBlend mode="normal" in2="shape" result="effect1_innerShadow"/>
<feColorMatrix in="SourceAlpha" type="matrix" values="0 0 0 0 0 0 0 0 0 0 0 0 0 0 0 0 0 0 127 0" result="hardAlpha"/>
<feOffset dy="-1.57143"/>
<feGaussianBlur stdDeviation="1.57143"/>
<feComposite in2="hardAlpha" operator="arithmetic" k2="-1" k3="1"/>
<feColorMatrix type="matrix" values="0 0 0 0 0 0 0 0 0 0 0 0 0 0 0 0 0 0 0.12 0"/>
<feBlend mode="normal" in2="effect1_innerShadow" result="effect2_innerShadow"/>
</filter>
<clipPath id="clip0">
<rect width="44" height="44" fill="white"/>
</clipPath>
</defs>
</svg>
