<svg width="46" height="46" viewBox="0 0 46 46" fill="none" xmlns="http://www.w3.org/2000/svg">
<g filter="url(#filter0_ii)">
<path d="M41.4749 42.9574C41.7095 42.9291 41.9554 43.0113 42.1261 43.2045L42.1412 43.2215C42.4337 43.5527 42.9513 43.5497 43.2399 43.2152C43.5364 42.8716 44.0674 42.8668 44.37 43.205L44.3704 43.2054C44.6683 43.5423 45.1939 43.5422 45.4918 43.2053C45.5803 43.1053 45.6888 43.035 45.8054 42.9944C46.0063 42.9245 46.0662 42.6702 45.9158 42.5197C43.9041 40.508 42.7738 37.7796 42.7738 34.9346V23H33.9454V37.7865C33.9454 40.8622 36.4388 43.3555 39.5145 43.3555H39.6345C40.2456 43.3555 40.8408 43.2052 41.4075 42.9768C41.4327 42.9666 41.4555 42.9599 41.4749 42.9574Z" fill="url(#paint0_linear)"/>
</g>
<g filter="url(#filter1_ii)">
<path d="M41.4749 42.9574C41.7095 42.9291 41.9554 43.0113 42.1261 43.2045L42.1412 43.2215C42.4337 43.5527 42.9513 43.5497 43.2399 43.2152C43.5364 42.8716 44.0674 42.8668 44.37 43.205L44.3704 43.2054C44.6683 43.5423 45.1939 43.5422 45.4918 43.2053C45.5803 43.1053 45.6888 43.035 45.8054 42.9944C46.0063 42.9245 46.0662 42.6702 45.9158 42.5197C43.9041 40.508 42.7738 37.7796 42.7738 34.9346V23H33.9454V37.7865C33.9454 40.8622 36.4388 43.3555 39.5145 43.3555H39.6345C40.2456 43.3555 40.8408 43.2052 41.4075 42.9768C41.4327 42.9666 41.4555 42.9599 41.4749 42.9574Z" fill="url(#paint1_linear)"/>
</g>
<g filter="url(#filter2_ii)">
<path d="M21.3869 1.61304C9.5751 1.61304 0 11.188 0 23C0 34.8119 9.5751 44.3869 21.3869 44.3869C33.1988 44.3869 42.774 34.8118 42.774 23C42.774 11.1881 33.1988 1.61304 21.3869 1.61304ZM21.3869 32.0919C16.3658 32.0919 12.295 28.0211 12.295 23C12.295 17.9789 16.3658 13.9081 21.3869 13.9081C26.408 13.9081 30.479 17.9787 30.479 23C30.479 28.0213 26.4081 32.0919 21.3869 32.0919Z" fill="url(#paint2_linear)"/>
</g>
<g filter="url(#filter3_ii)">
<path d="M21.3869 43.1381C16.0078 43.1381 10.9506 41.0433 7.14711 37.2398C3.34358 33.4362 1.24878 28.3791 1.24878 23C1.24878 17.6209 3.34349 12.5637 7.14702 8.76021C10.9506 4.95667 16.0077 2.86188 21.3868 2.86188C26.7659 2.86188 31.8231 4.95667 35.6266 8.76021C39.4301 12.5637 41.5248 17.6209 41.5248 23C41.5248 28.3791 39.4301 33.4362 35.6266 37.2398C31.8231 41.0433 26.766 43.1381 21.3869 43.1381ZM21.3869 3.2226C16.1042 3.2226 11.1376 5.27984 7.40227 9.01528C3.66674 12.7507 1.60959 17.7173 1.60959 23C1.60959 28.2827 3.66674 33.2493 7.40227 36.9847C11.1377 40.7201 16.1042 42.7774 21.3869 42.7774C26.6696 42.7774 31.6362 40.7201 35.3715 36.9847C39.107 33.2493 41.1642 28.2827 41.1642 23C41.1642 17.7173 39.1071 12.7507 35.3715 9.01528C31.6362 5.27984 26.6697 3.2226 21.3869 3.2226Z" fill="url(#paint3_linear)"/>
</g>
<g filter="url(#filter4_ii)">
<path d="M21.387 41.2597C11.3185 41.2597 3.1272 33.0685 3.1272 23C3.1272 12.9315 11.3185 4.74023 21.387 4.74023C31.4555 4.74023 39.6467 12.9315 39.6467 23C39.6467 33.0685 31.4555 41.2597 21.387 41.2597ZM21.387 5.10105C11.5174 5.10105 3.48801 13.1305 3.48801 23C3.48801 32.8695 11.5174 40.8989 21.387 40.8989C31.2565 40.8989 39.2859 32.8695 39.2859 23C39.2859 13.1305 31.2566 5.10105 21.387 5.10105Z" fill="url(#paint4_linear)"/>
</g>
<g filter="url(#filter5_ii)">
<path d="M21.3869 39.5582C12.2567 39.5582 4.82874 32.1302 4.82874 23C4.82874 13.8698 12.2567 6.44177 21.3869 6.44177C30.5171 6.44177 37.9451 13.8698 37.9451 23C37.9451 32.1302 30.5172 39.5582 21.3869 39.5582ZM21.3869 6.80259C12.4557 6.80259 5.18955 14.0688 5.18955 23C5.18955 31.9312 12.4557 39.1973 21.3869 39.1973C30.3182 39.1973 37.5843 31.9312 37.5843 23C37.5843 14.0688 30.3182 6.80259 21.3869 6.80259Z" fill="url(#paint5_linear)"/>
</g>
<g filter="url(#filter6_ii)">
<path d="M21.387 38.0168C13.1067 38.0168 6.37024 31.2802 6.37024 23C6.37024 14.7199 13.1067 7.98328 21.387 7.98328C29.6673 7.98328 36.4038 14.7198 36.4038 23C36.4038 31.2803 29.6673 38.0168 21.387 38.0168ZM21.387 8.34409C13.3057 8.34409 6.73105 14.9188 6.73105 23C6.73105 31.0813 13.3057 37.656 21.387 37.656C29.4684 37.656 36.043 31.0813 36.043 23C36.043 14.9188 29.4684 8.34409 21.387 8.34409Z" fill="url(#paint6_linear)"/>
</g>
<g filter="url(#filter7_ii)">
<path d="M42.5087 26.3701L30.5257 14.3871C28.2356 11.9581 24.9885 10.4413 21.387 10.4413C14.4514 10.4413 8.82837 16.0643 8.82837 22.9999C8.82837 26.6016 10.3452 29.8487 12.7743 32.1387L24.7572 44.1216C33.8696 42.6792 41.0662 35.4826 42.5087 26.3701ZM12.295 23C12.295 17.9788 16.3658 13.9081 21.3869 13.9081C26.408 13.9081 30.4789 17.9787 30.4789 23C30.4789 28.0213 26.4081 32.0919 21.387 32.0919C16.3659 32.0919 12.295 28.0212 12.295 23Z" fill="url(#paint7_linear)"/>
</g>
<g filter="url(#filter8_ii)">
<path d="M21.3869 10.4413C14.4514 10.4413 8.82837 16.0644 8.82837 23C8.82837 29.9356 14.4514 35.5586 21.387 35.5586C28.3226 35.5586 33.9455 29.9355 33.9455 23C33.9455 16.0645 28.3224 10.4413 21.3869 10.4413ZM21.3869 32.0919C16.3657 32.0919 12.295 28.0211 12.295 23C12.295 17.9789 16.3658 13.9081 21.3869 13.9081C26.408 13.9081 30.4789 17.9787 30.4789 23C30.4789 28.0212 26.4081 32.0919 21.3869 32.0919Z" fill="url(#paint8_linear)"/>
</g>
<g filter="url(#filter9_ii)">
<path d="M9.24365 23C9.24365 29.7062 14.6807 35.1433 21.3869 35.1433C28.0931 35.1433 33.5303 29.7061 33.5303 23C33.5303 16.2939 28.0932 10.8567 21.387 10.8567C14.6808 10.8567 9.24365 16.2938 9.24365 23ZM12.5956 23C12.5956 18.1448 16.5318 14.2087 21.3869 14.2087C26.2421 14.2087 30.1782 18.1448 30.1782 23C30.1782 27.8551 26.2421 31.7913 21.3869 31.7913C16.5318 31.7913 12.5956 27.8551 12.5956 23Z" fill="url(#paint9_linear)"/>
</g>
<defs>
<filter id="filter0_ii" x="33.9454" y="21" width="12.0545" height="24.468" filterUnits="userSpaceOnUse" color-interpolation-filters="sRGB">
<feFlood flood-opacity="0" result="BackgroundImageFix"/>
<feBlend mode="normal" in="SourceGraphic" in2="BackgroundImageFix" result="shape"/>
<feColorMatrix in="SourceAlpha" type="matrix" values="0 0 0 0 0 0 0 0 0 0 0 0 0 0 0 0 0 0 127 0" result="hardAlpha"/>
<feOffset dy="2"/>
<feGaussianBlur stdDeviation="2"/>
<feComposite in2="hardAlpha" operator="arithmetic" k2="-1" k3="1"/>
<feColorMatrix type="matrix" values="0 0 0 0 1 0 0 0 0 1 0 0 0 0 1 0 0 0 0.25 0"/>
<feBlend mode="normal" in2="shape" result="effect1_innerShadow"/>
<feColorMatrix in="SourceAlpha" type="matrix" values="0 0 0 0 0 0 0 0 0 0 0 0 0 0 0 0 0 0 127 0" result="hardAlpha"/>
<feOffset dy="-2"/>
<feGaussianBlur stdDeviation="2"/>
<feComposite in2="hardAlpha" operator="arithmetic" k2="-1" k3="1"/>
<feColorMatrix type="matrix" values="0 0 0 0 0 0 0 0 0 0 0 0 0 0 0 0 0 0 0.12 0"/>
<feBlend mode="normal" in2="effect1_innerShadow" result="effect2_innerShadow"/>
</filter>
<filter id="filter1_ii" x="33.9454" y="21" width="12.0545" height="24.468" filterUnits="userSpaceOnUse" color-interpolation-filters="sRGB">
<feFlood flood-opacity="0" result="BackgroundImageFix"/>
<feBlend mode="normal" in="SourceGraphic" in2="BackgroundImageFix" result="shape"/>
<feColorMatrix in="SourceAlpha" type="matrix" values="0 0 0 0 0 0 0 0 0 0 0 0 0 0 0 0 0 0 127 0" result="hardAlpha"/>
<feOffset dy="2"/>
<feGaussianBlur stdDeviation="2"/>
<feComposite in2="hardAlpha" operator="arithmetic" k2="-1" k3="1"/>
<feColorMatrix type="matrix" values="0 0 0 0 1 0 0 0 0 1 0 0 0 0 1 0 0 0 0.25 0"/>
<feBlend mode="normal" in2="shape" result="effect1_innerShadow"/>
<feColorMatrix in="SourceAlpha" type="matrix" values="0 0 0 0 0 0 0 0 0 0 0 0 0 0 0 0 0 0 127 0" result="hardAlpha"/>
<feOffset dy="-2"/>
<feGaussianBlur stdDeviation="2"/>
<feComposite in2="hardAlpha" operator="arithmetic" k2="-1" k3="1"/>
<feColorMatrix type="matrix" values="0 0 0 0 0 0 0 0 0 0 0 0 0 0 0 0 0 0 0.12 0"/>
<feBlend mode="normal" in2="effect1_innerShadow" result="effect2_innerShadow"/>
</filter>
<filter id="filter2_ii" x="0" y="-0.386963" width="42.774" height="46.7739" filterUnits="userSpaceOnUse" color-interpolation-filters="sRGB">
<feFlood flood-opacity="0" result="BackgroundImageFix"/>
<feBlend mode="normal" in="SourceGraphic" in2="BackgroundImageFix" result="shape"/>
<feColorMatrix in="SourceAlpha" type="matrix" values="0 0 0 0 0 0 0 0 0 0 0 0 0 0 0 0 0 0 127 0" result="hardAlpha"/>
<feOffset dy="2"/>
<feGaussianBlur stdDeviation="2"/>
<feComposite in2="hardAlpha" operator="arithmetic" k2="-1" k3="1"/>
<feColorMatrix type="matrix" values="0 0 0 0 1 0 0 0 0 1 0 0 0 0 1 0 0 0 0.25 0"/>
<feBlend mode="normal" in2="shape" result="effect1_innerShadow"/>
<feColorMatrix in="SourceAlpha" type="matrix" values="0 0 0 0 0 0 0 0 0 0 0 0 0 0 0 0 0 0 127 0" result="hardAlpha"/>
<feOffset dy="-2"/>
<feGaussianBlur stdDeviation="2"/>
<feComposite in2="hardAlpha" operator="arithmetic" k2="-1" k3="1"/>
<feColorMatrix type="matrix" values="0 0 0 0 0 0 0 0 0 0 0 0 0 0 0 0 0 0 0.12 0"/>
<feBlend mode="normal" in2="effect1_innerShadow" result="effect2_innerShadow"/>
</filter>
<filter id="filter3_ii" x="1.24878" y="0.861877" width="40.2761" height="44.2762" filterUnits="userSpaceOnUse" color-interpolation-filters="sRGB">
<feFlood flood-opacity="0" result="BackgroundImageFix"/>
<feBlend mode="normal" in="SourceGraphic" in2="BackgroundImageFix" result="shape"/>
<feColorMatrix in="SourceAlpha" type="matrix" values="0 0 0 0 0 0 0 0 0 0 0 0 0 0 0 0 0 0 127 0" result="hardAlpha"/>
<feOffset dy="2"/>
<feGaussianBlur stdDeviation="2"/>
<feComposite in2="hardAlpha" operator="arithmetic" k2="-1" k3="1"/>
<feColorMatrix type="matrix" values="0 0 0 0 1 0 0 0 0 1 0 0 0 0 1 0 0 0 0.25 0"/>
<feBlend mode="normal" in2="shape" result="effect1_innerShadow"/>
<feColorMatrix in="SourceAlpha" type="matrix" values="0 0 0 0 0 0 0 0 0 0 0 0 0 0 0 0 0 0 127 0" result="hardAlpha"/>
<feOffset dy="-2"/>
<feGaussianBlur stdDeviation="2"/>
<feComposite in2="hardAlpha" operator="arithmetic" k2="-1" k3="1"/>
<feColorMatrix type="matrix" values="0 0 0 0 0 0 0 0 0 0 0 0 0 0 0 0 0 0 0.12 0"/>
<feBlend mode="normal" in2="effect1_innerShadow" result="effect2_innerShadow"/>
</filter>
<filter id="filter4_ii" x="3.1272" y="2.74023" width="36.5195" height="40.5195" filterUnits="userSpaceOnUse" color-interpolation-filters="sRGB">
<feFlood flood-opacity="0" result="BackgroundImageFix"/>
<feBlend mode="normal" in="SourceGraphic" in2="BackgroundImageFix" result="shape"/>
<feColorMatrix in="SourceAlpha" type="matrix" values="0 0 0 0 0 0 0 0 0 0 0 0 0 0 0 0 0 0 127 0" result="hardAlpha"/>
<feOffset dy="2"/>
<feGaussianBlur stdDeviation="2"/>
<feComposite in2="hardAlpha" operator="arithmetic" k2="-1" k3="1"/>
<feColorMatrix type="matrix" values="0 0 0 0 1 0 0 0 0 1 0 0 0 0 1 0 0 0 0.25 0"/>
<feBlend mode="normal" in2="shape" result="effect1_innerShadow"/>
<feColorMatrix in="SourceAlpha" type="matrix" values="0 0 0 0 0 0 0 0 0 0 0 0 0 0 0 0 0 0 127 0" result="hardAlpha"/>
<feOffset dy="-2"/>
<feGaussianBlur stdDeviation="2"/>
<feComposite in2="hardAlpha" operator="arithmetic" k2="-1" k3="1"/>
<feColorMatrix type="matrix" values="0 0 0 0 0 0 0 0 0 0 0 0 0 0 0 0 0 0 0.12 0"/>
<feBlend mode="normal" in2="effect1_innerShadow" result="effect2_innerShadow"/>
</filter>
<filter id="filter5_ii" x="4.82874" y="4.44177" width="33.1164" height="37.1164" filterUnits="userSpaceOnUse" color-interpolation-filters="sRGB">
<feFlood flood-opacity="0" result="BackgroundImageFix"/>
<feBlend mode="normal" in="SourceGraphic" in2="BackgroundImageFix" result="shape"/>
<feColorMatrix in="SourceAlpha" type="matrix" values="0 0 0 0 0 0 0 0 0 0 0 0 0 0 0 0 0 0 127 0" result="hardAlpha"/>
<feOffset dy="2"/>
<feGaussianBlur stdDeviation="2"/>
<feComposite in2="hardAlpha" operator="arithmetic" k2="-1" k3="1"/>
<feColorMatrix type="matrix" values="0 0 0 0 1 0 0 0 0 1 0 0 0 0 1 0 0 0 0.25 0"/>
<feBlend mode="normal" in2="shape" result="effect1_innerShadow"/>
<feColorMatrix in="SourceAlpha" type="matrix" values="0 0 0 0 0 0 0 0 0 0 0 0 0 0 0 0 0 0 127 0" result="hardAlpha"/>
<feOffset dy="-2"/>
<feGaussianBlur stdDeviation="2"/>
<feComposite in2="hardAlpha" operator="arithmetic" k2="-1" k3="1"/>
<feColorMatrix type="matrix" values="0 0 0 0 0 0 0 0 0 0 0 0 0 0 0 0 0 0 0.12 0"/>
<feBlend mode="normal" in2="effect1_innerShadow" result="effect2_innerShadow"/>
</filter>
<filter id="filter6_ii" x="6.37024" y="5.98328" width="30.0336" height="34.0335" filterUnits="userSpaceOnUse" color-interpolation-filters="sRGB">
<feFlood flood-opacity="0" result="BackgroundImageFix"/>
<feBlend mode="normal" in="SourceGraphic" in2="BackgroundImageFix" result="shape"/>
<feColorMatrix in="SourceAlpha" type="matrix" values="0 0 0 0 0 0 0 0 0 0 0 0 0 0 0 0 0 0 127 0" result="hardAlpha"/>
<feOffset dy="2"/>
<feGaussianBlur stdDeviation="2"/>
<feComposite in2="hardAlpha" operator="arithmetic" k2="-1" k3="1"/>
<feColorMatrix type="matrix" values="0 0 0 0 1 0 0 0 0 1 0 0 0 0 1 0 0 0 0.25 0"/>
<feBlend mode="normal" in2="shape" result="effect1_innerShadow"/>
<feColorMatrix in="SourceAlpha" type="matrix" values="0 0 0 0 0 0 0 0 0 0 0 0 0 0 0 0 0 0 127 0" result="hardAlpha"/>
<feOffset dy="-2"/>
<feGaussianBlur stdDeviation="2"/>
<feComposite in2="hardAlpha" operator="arithmetic" k2="-1" k3="1"/>
<feColorMatrix type="matrix" values="0 0 0 0 0 0 0 0 0 0 0 0 0 0 0 0 0 0 0.12 0"/>
<feBlend mode="normal" in2="effect1_innerShadow" result="effect2_innerShadow"/>
</filter>
<filter id="filter7_ii" x="8.82837" y="8.44128" width="33.6804" height="37.6804" filterUnits="userSpaceOnUse" color-interpolation-filters="sRGB">
<feFlood flood-opacity="0" result="BackgroundImageFix"/>
<feBlend mode="normal" in="SourceGraphic" in2="BackgroundImageFix" result="shape"/>
<feColorMatrix in="SourceAlpha" type="matrix" values="0 0 0 0 0 0 0 0 0 0 0 0 0 0 0 0 0 0 127 0" result="hardAlpha"/>
<feOffset dy="2"/>
<feGaussianBlur stdDeviation="2"/>
<feComposite in2="hardAlpha" operator="arithmetic" k2="-1" k3="1"/>
<feColorMatrix type="matrix" values="0 0 0 0 1 0 0 0 0 1 0 0 0 0 1 0 0 0 0.25 0"/>
<feBlend mode="normal" in2="shape" result="effect1_innerShadow"/>
<feColorMatrix in="SourceAlpha" type="matrix" values="0 0 0 0 0 0 0 0 0 0 0 0 0 0 0 0 0 0 127 0" result="hardAlpha"/>
<feOffset dy="-2"/>
<feGaussianBlur stdDeviation="2"/>
<feComposite in2="hardAlpha" operator="arithmetic" k2="-1" k3="1"/>
<feColorMatrix type="matrix" values="0 0 0 0 0 0 0 0 0 0 0 0 0 0 0 0 0 0 0.12 0"/>
<feBlend mode="normal" in2="effect1_innerShadow" result="effect2_innerShadow"/>
</filter>
<filter id="filter8_ii" x="8.82837" y="8.44135" width="25.1172" height="29.1173" filterUnits="userSpaceOnUse" color-interpolation-filters="sRGB">
<feFlood flood-opacity="0" result="BackgroundImageFix"/>
<feBlend mode="normal" in="SourceGraphic" in2="BackgroundImageFix" result="shape"/>
<feColorMatrix in="SourceAlpha" type="matrix" values="0 0 0 0 0 0 0 0 0 0 0 0 0 0 0 0 0 0 127 0" result="hardAlpha"/>
<feOffset dy="2"/>
<feGaussianBlur stdDeviation="2"/>
<feComposite in2="hardAlpha" operator="arithmetic" k2="-1" k3="1"/>
<feColorMatrix type="matrix" values="0 0 0 0 1 0 0 0 0 1 0 0 0 0 1 0 0 0 0.25 0"/>
<feBlend mode="normal" in2="shape" result="effect1_innerShadow"/>
<feColorMatrix in="SourceAlpha" type="matrix" values="0 0 0 0 0 0 0 0 0 0 0 0 0 0 0 0 0 0 127 0" result="hardAlpha"/>
<feOffset dy="-2"/>
<feGaussianBlur stdDeviation="2"/>
<feComposite in2="hardAlpha" operator="arithmetic" k2="-1" k3="1"/>
<feColorMatrix type="matrix" values="0 0 0 0 0 0 0 0 0 0 0 0 0 0 0 0 0 0 0.12 0"/>
<feBlend mode="normal" in2="effect1_innerShadow" result="effect2_innerShadow"/>
</filter>
<filter id="filter9_ii" x="9.24365" y="8.85669" width="24.2867" height="28.2866" filterUnits="userSpaceOnUse" color-interpolation-filters="sRGB">
<feFlood flood-opacity="0" result="BackgroundImageFix"/>
<feBlend mode="normal" in="SourceGraphic" in2="BackgroundImageFix" result="shape"/>
<feColorMatrix in="SourceAlpha" type="matrix" values="0 0 0 0 0 0 0 0 0 0 0 0 0 0 0 0 0 0 127 0" result="hardAlpha"/>
<feOffset dy="2"/>
<feGaussianBlur stdDeviation="2"/>
<feComposite in2="hardAlpha" operator="arithmetic" k2="-1" k3="1"/>
<feColorMatrix type="matrix" values="0 0 0 0 1 0 0 0 0 1 0 0 0 0 1 0 0 0 0.25 0"/>
<feBlend mode="normal" in2="shape" result="effect1_innerShadow"/>
<feColorMatrix in="SourceAlpha" type="matrix" values="0 0 0 0 0 0 0 0 0 0 0 0 0 0 0 0 0 0 127 0" result="hardAlpha"/>
<feOffset dy="-2"/>
<feGaussianBlur stdDeviation="2"/>
<feComposite in2="hardAlpha" operator="arithmetic" k2="-1" k3="1"/>
<feColorMatrix type="matrix" values="0 0 0 0 0 0 0 0 0 0 0 0 0 0 0 0 0 0 0.12 0"/>
<feBlend mode="normal" in2="effect1_innerShadow" result="effect2_innerShadow"/>
</filter>
<linearGradient id="paint0_linear" x1="39.4133" y1="32.6014" x2="48.1287" y2="41.3159" gradientUnits="userSpaceOnUse">
<stop stop-color="#FCC344"/>
<stop offset="1" stop-color="#F7AE3D"/>
</linearGradient>
<linearGradient id="paint1_linear" x1="49.2872" y1="42.4754" x2="39.3506" y2="32.5387" gradientUnits="userSpaceOnUse">
<stop stop-color="#FCC344" stop-opacity="0"/>
<stop offset="1" stop-color="#D48000"/>
</linearGradient>
<linearGradient id="paint2_linear" x1="2.73057" y1="19.1995" x2="45.5033" y2="27.9141" gradientUnits="userSpaceOnUse">
<stop stop-color="#FCC344"/>
<stop offset="1" stop-color="#F7AE3D"/>
</linearGradient>
<linearGradient id="paint3_linear" x1="40.2711" y1="42.2984" x2="0.858087" y2="2.02297" gradientUnits="userSpaceOnUse">
<stop stop-color="#FCC344"/>
<stop offset="1" stop-color="#F7AE3D"/>
</linearGradient>
<linearGradient id="paint4_linear" x1="40.1891" y1="40.4227" x2="0.776073" y2="3.90311" gradientUnits="userSpaceOnUse">
<stop stop-color="#FCC344"/>
<stop offset="1" stop-color="#F7AE3D"/>
</linearGradient>
<linearGradient id="paint5_linear" x1="40.1082" y1="38.7309" x2="0.69521" y2="5.6152" gradientUnits="userSpaceOnUse">
<stop stop-color="#FCC344"/>
<stop offset="1" stop-color="#F7AE3D"/>
</linearGradient>
<linearGradient id="paint6_linear" x1="40.0302" y1="37.207" x2="0.617196" y2="7.1742" gradientUnits="userSpaceOnUse">
<stop stop-color="#FCC344"/>
<stop offset="1" stop-color="#F7AE3D"/>
</linearGradient>
<linearGradient id="paint7_linear" x1="39.1197" y1="40.7346" x2="21.4976" y2="23.1116" gradientUnits="userSpaceOnUse">
<stop stop-color="#FCC344" stop-opacity="0"/>
<stop offset="1" stop-color="#D48000"/>
</linearGradient>
<linearGradient id="paint8_linear" x1="8.82817" y1="23.0005" x2="33.9448" y2="23.0005" gradientUnits="userSpaceOnUse">
<stop stop-color="#FFF2EB"/>
<stop offset="1" stop-color="#F1DACB"/>
</linearGradient>
<linearGradient id="paint9_linear" x1="33.5296" y1="23.0005" x2="9.24345" y2="23.0005" gradientUnits="userSpaceOnUse">
<stop stop-color="#FFF2EB"/>
<stop offset="1" stop-color="#F1DACB"/>
</linearGradient>
</defs>
</svg>
